<svg width="20" height="20" viewBox="0 0 20 20" fill="none" xmlns="http://www.w3.org/2000/svg">
<path d="M8.57029 0.587646C3.9993 0.587646 0.280273 4.30667 0.280273 8.87766C0.280273 13.4489 3.9993 17.1677 8.57029 17.1677C13.1415 17.1677 16.8603 13.4489 16.8603 8.87766C16.8603 4.30667 13.1415 0.587646 8.57029 0.587646ZM8.57029 15.6373C4.8431 15.6373 1.81074 12.6049 1.81074 8.8777C1.81074 5.15051 4.8431 2.11811 8.57029 2.11811C12.2975 2.11811 15.3298 5.15048 15.3298 8.87766C15.3298 12.6049 12.2975 15.6373 8.57029 15.6373Z" fill="#333333"/>
<path d="M18.8804 18.1062L14.493 13.7188C14.1941 13.4199 13.7099 13.4199 13.411 13.7188C13.112 14.0175 13.112 14.5022 13.411 14.8009L17.7983 19.1883C17.9478 19.3377 18.1435 19.4125 18.3394 19.4125C18.535 19.4125 18.7309 19.3377 18.8804 19.1883C19.1794 18.8896 19.1794 18.4049 18.8804 18.1062Z" fill="#333333"/>
</svg>
