<svg width="46" height="17" viewBox="0 0 46 17" fill="none" xmlns="http://www.w3.org/2000/svg">
<path d="M33.3908 6.49083H31.7836V11.9557C31.7836 12.058 31.6952 12.1456 31.592 12.1456H30.3534C30.2502 12.1456 30.1617 12.058 30.1617 11.9557V6.49083H28.5398C28.4956 6.49083 28.4366 6.47622 28.4071 6.44699C28.3776 6.41777 28.3481 6.37394 28.3481 6.31549V5.3511C28.3481 5.30727 28.3629 5.24882 28.4071 5.2196C28.4366 5.19037 28.4956 5.16115 28.5398 5.17576H33.3908C33.494 5.17576 33.5825 5.24882 33.5825 5.3511V6.31549C33.5825 6.41777 33.494 6.49083 33.3908 6.49083Z" fill="#333333"/>
<path d="M38.5661 12.1014C37.9321 12.1891 37.2833 12.2329 36.6493 12.2183C35.4255 12.2183 34.3491 11.9115 34.3491 10.2019V7.08956C34.3491 5.37997 35.4402 5.08773 36.664 5.08773C37.298 5.07312 37.9321 5.11695 38.5661 5.20462C38.6988 5.21924 38.7578 5.27768 38.7578 5.39458V6.27129C38.7578 6.37358 38.6693 6.46125 38.5661 6.46125H36.5756C36.1332 6.46125 35.971 6.60737 35.971 7.10417V7.95166H38.4923C38.5956 7.95166 38.684 8.03933 38.684 8.14161V9.03294C38.684 9.13522 38.5956 9.22289 38.4923 9.22289H35.971V10.2165C35.971 10.6987 36.1332 10.8594 36.5756 10.8594H38.5661C38.6693 10.8594 38.7578 10.9471 38.7578 11.0494V11.9261C38.7578 12.0284 38.6988 12.0868 38.5661 12.1014Z" fill="#333333"/>
<path d="M45.7026 12.1455H44.1987C44.0955 12.1601 43.9922 12.1016 43.948 11.9993L42.6357 9.95367L41.4562 11.9555C41.3972 12.0724 41.3235 12.1455 41.2203 12.1455H39.8195C39.79 12.1455 39.7458 12.1455 39.7163 12.1162C39.6868 12.087 39.6721 12.0578 39.6721 12.0139C39.6721 11.9847 39.6868 11.9701 39.6868 11.9555L41.7363 8.56555L39.6573 5.35094C39.6426 5.33632 39.6426 5.3071 39.6426 5.29249C39.6426 5.21943 39.7163 5.16098 39.79 5.17559H41.3382C41.4414 5.17559 41.5151 5.26327 41.5741 5.35094L42.7832 7.25048L43.9627 5.35094C44.007 5.24865 44.0955 5.19021 44.1987 5.17559H45.5994C45.6731 5.17559 45.7468 5.21943 45.7468 5.29249C45.7468 5.3071 45.7321 5.33632 45.7321 5.35094L43.6679 8.59477L45.8206 11.9555C45.8353 11.9847 45.8501 12.0139 45.8501 12.0432C45.8353 12.1016 45.7763 12.1455 45.7026 12.1455Z" fill="#333333"/>
<path d="M26.0923 5.19043C26.0186 5.19043 25.9596 5.23427 25.9449 5.30732L24.5736 10.3484C24.5589 10.4507 24.5294 10.4945 24.4409 10.4945C24.3524 10.4945 24.323 10.4507 24.3082 10.3484L22.937 5.30732C22.9222 5.23427 22.8632 5.19043 22.7895 5.19043H21.433C21.3888 5.19043 21.3445 5.20504 21.3151 5.24888C21.2856 5.2781 21.2708 5.32194 21.2856 5.36577C21.2856 5.36577 22.9665 11.1521 22.9812 11.2105C23.2024 11.8973 23.7479 12.2333 24.4409 12.2333C25.1044 12.2626 25.7089 11.8388 25.9006 11.2105C25.9301 11.1375 27.5668 5.36577 27.5668 5.36577C27.5815 5.32194 27.5668 5.2781 27.5373 5.24888C27.5078 5.21965 27.4636 5.19043 27.4193 5.19043H26.0923Z" fill="#333333"/>
<path d="M18.425 0.5H4.31451C3.79846 0.5 3.32663 0.777625 3.07597 1.20137C2.81057 1.63973 2.79583 2.18037 3.03174 2.61872L4.44721 5.27808H1.88167C1.55729 5.27808 1.24765 5.43881 1.07072 5.71644C0.893786 5.99406 0.893786 6.34475 1.04123 6.63699L5.58254 15.1411C5.74473 15.4479 6.06911 15.6379 6.40823 15.6379C6.74736 15.6379 7.07174 15.4479 7.23393 15.1411L8.47247 12.8324L10.0206 15.7402C10.2713 16.2078 10.7726 16.5 11.3034 16.5C11.8342 16.5 12.3355 16.2078 12.5862 15.7402L19.6636 2.54566C19.8995 2.10731 19.8847 1.58128 19.6193 1.17215C19.3834 0.748402 18.9116 0.5 18.425 0.5ZM12.1144 6.06712L9.01801 11.8242C8.9148 12.0288 8.70838 12.1457 8.47247 12.1457C8.23655 12.1457 8.03013 12.0142 7.92692 11.8242L4.87481 6.12557C4.78634 5.95023 4.78634 5.74566 4.88955 5.57032C4.99276 5.39498 5.18444 5.29269 5.37612 5.29269H11.6278C11.8195 5.29269 11.9964 5.38036 12.0849 5.5411C12.2028 5.70183 12.2028 5.90639 12.1144 6.06712Z" fill="#333333"/>
</svg>
